<?xml version="1.0" encoding="UTF-8" standalone="no"?>
<svg width="22px" height="24px" viewBox="0 0 22 24" version="1.1" xmlns="http://www.w3.org/2000/svg" xmlns:xlink="http://www.w3.org/1999/xlink">
    <!-- Generator: Sketch 3.6.1 (26313) - http://www.bohemiancoding.com/sketch -->
    <title>icon-process-grow</title>
    <desc>Created with Sketch.</desc>
    <defs></defs>
    <g id="Page-1" stroke="none" stroke-width="1" fill="none" fill-rule="evenodd">
        <g id="icon-process-grow" fill="#0365A4">
            <path d="M4,20 L4,22 L2,22 L2,20 L4,20 L4,20 Z M6,18 L0,18 L0,24 L6,24 L6,18 L6,18 Z M12,17 L12,22 L10,22 L10,17 L12,17 L12,17 Z M14,15 L8,15 L8,24 L14,24 L14,15 L14,15 Z M20,13 L20,22 L18,22 L18,13 L20,13 L20,13 Z M22,11 L16,11 L16,24 L22,24 L22,11 L22,11 Z M22,8.8817842e-16 L16,1.221 L17.716,2.929 L10.866,9.662 L7.865,6.66 L0.024,14.457 L1.434,15.875 L7.861,9.485 L10.852,12.478 L19.132,4.341 L20.799,6.001 L22,0 L22,8.8817842e-16 Z" id="Shape"></path>
        </g>
    </g>
</svg>