<?xml version="1.0" encoding="UTF-8" standalone="no"?>
<svg width="24px" height="22px" viewBox="0 0 24 22" version="1.1" xmlns="http://www.w3.org/2000/svg" xmlns:xlink="http://www.w3.org/1999/xlink">
    <!-- Generator: Sketch 3.6.1 (26313) - http://www.bohemiancoding.com/sketch -->
    <title>Shape</title>
    <desc>Created with Sketch.</desc>
    <defs></defs>
    <g id="Page-1" stroke="none" stroke-width="1" fill="none" fill-rule="evenodd">
        <path d="M19,17 C19,18.104 18.104,19 17,19 C15.896,19 15,18.104 15,17 C15,15.896 15.896,15 17,15 C18.104,15 19,15.896 19,17 L19,17 Z M5,14 C3.346,14 2,15.346 2,17 C2,18.654 3.346,20 5,20 L19,20 C20.654,20 22,18.654 22,17 C22,15.346 20.654,14 19,14 L5,14 L5,14 Z M24,17 C24,19.761 21.761,22 19,22 L5,22 C2.239,22 0,19.761 0,17 C0,14.239 2.239,12 5,12 L19,12 C21.761,12 24,14.239 24,17 L24,17 Z M24,5 C24,7.761 21.761,10 19,10 L5,10 C2.239,10 0,7.761 0,5 C0,2.239 2.239,0 5,0 L19,0 C21.761,0 24,2.239 24,5 L24,5 Z M9,5 C9,3.896 8.104,3 7,3 C5.896,3 5,3.896 5,5 C5,6.104 5.896,7 7,7 C8.104,7 9,6.104 9,5 L9,5 Z" id="Shape" fill="#0365A4"></path>
    </g>
</svg>