<?xml version="1.0" encoding="UTF-8" standalone="no"?>
<svg width="24px" height="24px" viewBox="0 0 24 24" version="1.1" xmlns="http://www.w3.org/2000/svg" xmlns:xlink="http://www.w3.org/1999/xlink">
    <!-- Generator: Sketch 3.6.1 (26313) - http://www.bohemiancoding.com/sketch -->
    <title>Shape</title>
    <desc>Created with Sketch.</desc>
    <defs></defs>
    <g id="Page-1" stroke="none" stroke-width="1" fill="none" fill-rule="evenodd">
        <path d="M12,2 C17.514,2 22,6.486 22,12 C22,17.514 17.514,22 12,22 C6.486,22 2,17.514 2,12 C2,6.486 6.486,2 12,2 L12,2 Z M12,0 C5.373,0 0,5.373 0,12 C0,18.627 5.373,24 12,24 C18.627,24 24,18.627 24,12 C24,5.373 18.627,0 12,0 L12,0 Z M18.25,8.891 L16.829,7.482 L10.724,13.7 L7.646,10.763 L6.25,12.199 L10.75,16.518 L18.25,8.891 L18.25,8.891 Z" id="Shape" fill="#FFFFFF"></path>
    </g>
</svg>