<?xml version="1.0" encoding="UTF-8" standalone="no"?>
<svg width="43px" height="33px" viewBox="0 0 43 33" version="1.1" xmlns="http://www.w3.org/2000/svg" xmlns:xlink="http://www.w3.org/1999/xlink" xmlns:sketch="http://www.bohemiancoding.com/sketch/ns">
    <!-- Generator: Sketch 3.1 (8751) - http://www.bohemiancoding.com/sketch -->
    <title>font-size-icon</title>
    <desc>Created with Sketch.</desc>
    <defs></defs>
    <g id="Page-1" stroke="none" stroke-width="1"  fill-rule="evenodd" sketch:type="MSPage">
        <g id="Case-creator-pre-design-2" sketch:type="MSArtboardGroup" transform="translate(-32.000000, -432.000000)">
            <g id="toolbar" sketch:type="MSLayerGroup" transform="translate(-3.000000, -9.000000)">
                <g id="font-size-icon-+-CLAIM" transform="translate(3.000000, 441.000000)" sketch:type="MSShapeGroup">
                    <path d="M75,30.4903627 L75,32.019399 L68.7629004,32.019399 L68.7629004,30.4903627 L69.3302148,30.4903627 C69.7923809,30.4903627 70.1176523,30.0402073 69.9675723,29.6083731 L69.0565937,26.9883523 L65.0593574,26.9883523 L64.0287852,24.175171 L68.1423398,24.175171 L65.7004941,16.9655544 L63.6338066,23.0679378 L62.0575039,18.6511917 L63.7103164,14.0197306 L67.6908398,14.0197306 L73.2373359,29.5612021 C73.435707,30.1177202 73.9685879,30.4903627 74.5662207,30.4903627 L75,30.4903627 L75,30.4903627 L75,30.4903627 Z M64.3138281,29.2994819 L65.0853926,29.2994819 L65.0853926,32.0194819 L53.4431426,32.0194819 L53.4431426,29.2994819 L54.4522988,29.2994819 C55.2744219,29.2994819 55.8529063,28.4985699 55.5860879,27.7307358 L54.1253477,23.5136995 L42.9599609,23.5136995 L41.4990527,27.7307358 C41.2320664,28.4985699 41.8107187,29.2994819 42.6328418,29.2994819 L43.641998,29.2994819 L43.641998,32.0194819 L32,32.0194819 L32,29.2994819 L32.7713965,29.2994819 C33.8346387,29.2994819 34.7823184,28.6368497 35.1354727,27.6465078 L45.002125,-3.55271368e-15 L52.0830156,-3.55271368e-15 L61.9495,27.6464249 C62.3029902,28.6367668 63.2507539,29.2994819 64.3138281,29.2994819 L64.3138281,29.2994819 Z M44.7459727,18.0652435 L52.339168,18.0652435 L48.5426543,6.81434197 L44.7459727,18.0652435 L44.7459727,18.0652435 Z" id="font-size-icon"></path>
                </g>
            </g>
        </g>
    </g>
</svg>