<?xml version="1.0" encoding="UTF-8" standalone="no"?>
<svg width="24px" height="24px" viewBox="0 0 24 24" version="1.1" xmlns="http://www.w3.org/2000/svg" xmlns:xlink="http://www.w3.org/1999/xlink">
    <!-- Generator: Sketch 3.6.1 (26313) - http://www.bohemiancoding.com/sketch -->
    <title>icon-process-artist</title>
    <desc>Created with Sketch.</desc>
    <defs></defs>
    <g id="Page-1" stroke="none" stroke-width="1" fill="none" fill-rule="evenodd">
        <g id="icon-process-artist" fill="#0365A4">
            <path d="M0,-8.8817842e-16 C2.799,1.2 8.683,0.955 8.307,6.371 L6.164,8.557 C0.826,8.65 0.925,2.952 8.8817842e-16,-8.8817842e-16 L0,-8.8817842e-16 Z M10.884,15.402 C13.592,17.45 22.708,23.853 22.708,23.853 C23.462,24.366 24.37,23.436 23.844,22.691 C23.844,22.691 17.237,13.727 15.125,11.072 C13.457,8.971 12.623,8.897 9.665,8.026 L7.712,10.023 C8.648,12.954 8.745,13.783 10.884,15.402 L10.884,15.402 Z M6.007,18.734 L8.627,16.108 C8.367,15.864 8.138,15.623 7.937,15.384 L5.3,18.027 L6.007,18.734 L6.007,18.734 Z M14.251,7.572 L19.055,2.758 L21.209,4.913 L16.513,9.619 C16.951,10.144 17.326,10.64 17.759,11.203 L24,4.95 L19.051,-5.32907052e-15 L12.33,6.733 C13.035,6.962 13.658,7.216 14.251,7.572 L14.251,7.572 Z M19.088,4.206 L15.116,8.187 C15.356,8.386 15.6,8.61 15.848,8.868 L19.794,4.912 L19.088,4.206 L19.088,4.206 Z M9.387,16.76 L5.787,20.367 L2.808,21.192 L3.632,18.213 L7.309,14.528 C6.953,13.945 6.692,13.325 6.45,12.624 L1.824,17.259 L8.8817842e-16,24 L6.773,22.209 L11,17.975 C10,17.247 9.97,17.226 9.387,16.76 L9.387,16.76 Z" id="Shape"></path>
        </g>
    </g>
</svg>