<?xml version="1.0" encoding="UTF-8" standalone="no"?>
<svg width="32px" height="32px" viewBox="0 0 32 32" version="1.1" xmlns="http://www.w3.org/2000/svg" xmlns:xlink="http://www.w3.org/1999/xlink" xmlns:sketch="http://www.bohemiancoding.com/sketch/ns">
    <!-- Generator: Sketch 3.1 (8751) - http://www.bohemiancoding.com/sketch -->
    <title>info-2-icon 2</title>
    <desc>Created with Sketch.</desc>
    <defs></defs>
    <g id="Page-1" stroke="none" stroke-width="1" fill="none" fill-rule="evenodd" sketch:type="MSPage">
        <g id="Case-creator-pre-design" sketch:type="MSArtboardGroup" transform="translate(-37.000000, -897.000000)" fill="#FFFFFF">
            <g id="toolbar" sketch:type="MSLayerGroup" transform="translate(-3.000000, -9.000000)">
                <path d="M55.9998447,909.106796 C63.1252816,909.106796 68.8932039,914.873087 68.8932039,921.999845 C68.8932039,929.125359 63.1266019,934.893049 55.9998447,934.893049 C48.8744078,934.893049 43.1067961,929.126602 43.1067961,921.999845 C43.1067961,914.874408 48.8732427,909.106796 55.9998447,909.106796 L55.9998447,909.106796 Z M55.9998447,906 C47.1634175,906 40,913.16334 40,921.999845 C40,930.836427 47.1634175,937.999845 55.9998447,937.999845 C64.8364272,937.999845 72,930.836427 72,921.999845 C72,913.16334 64.8365049,906 55.9998447,906 L55.9998447,906 L55.9998447,906 Z M58.3162718,930.66532 L53.8389126,930.66532 L53.8389126,920.027107 L58.3162718,920.027107 L58.3162718,930.66532 L58.3162718,930.66532 Z M56.0776699,917.826563 C54.7167379,917.826563 53.6132816,916.723184 53.6132816,915.362097 C53.6132816,914.001165 54.7166602,912.897709 56.0776699,912.897709 C57.4387573,912.897709 58.5419806,914.001087 58.5419806,915.362097 C58.5419806,916.723184 57.4387573,917.826563 56.0776699,917.826563 L56.0776699,917.826563 Z" id="info-2-icon-2" sketch:type="MSShapeGroup"></path>
            </g>
        </g>
    </g>
</svg>