<?xml version="1.0" encoding="UTF-8" standalone="no"?>
<svg width="32px" height="32px" viewBox="0 0 32 32" version="1.1" xmlns="http://www.w3.org/2000/svg" xmlns:xlink="http://www.w3.org/1999/xlink" xmlns:sketch="http://www.bohemiancoding.com/sketch/ns">
    <!-- Generator: Sketch 3.1 (8751) - http://www.bohemiancoding.com/sketch -->
    <title>paintbrush-7-icon</title>
    <desc>Created with Sketch.</desc>
    <defs></defs>
    <g id="Page-1" stroke="none" stroke-width="1" fill-rule="evenodd" sketch:type="MSPage">
        <g id="Case-creator-pre-design-2" sketch:type="MSArtboardGroup" transform="translate(-37.000000, -212.000000)" >
            <g id="toolbar" sketch:type="MSLayerGroup" transform="translate(-3.000000, -9.000000)">
                <g id="paintbrush-7-icon-+-COLOR" transform="translate(3.000000, 221.000000)" sketch:type="MSShapeGroup">
                    <path d="M48.9957801,18.6471094 C49.0088286,20.1196531 47.8226538,21.3240803 46.3480907,21.3331677 C44.874149,21.3448958 43.6743043,20.1600415 43.6664597,18.6874978 C43.6534111,17.2141774 44.8389645,16.0143327 46.3090228,16.0006628 C47.7835082,15.9907988 48.9879354,17.1769735 48.9957801,18.6471094 L48.9957801,18.6471094 Z M47.6917801,13.3320026 C46.2191587,13.3424104 45.0140325,12.1581774 45.0049451,10.6822939 C44.9932169,9.21231332 46.1748868,8.0110706 47.6500713,8.00136187 C49.1194305,7.98769196 50.3278189,9.17060459 50.3330228,10.6445463 C50.3486344,12.1198085 49.1598189,13.3184104 47.6917801,13.3320026 L47.6917801,13.3320026 Z M58.3328674,7.9798473 C58.3379936,9.44990556 57.1584985,10.6575949 55.6857995,10.6673036 C54.2118577,10.6796531 53.0087509,9.4941774 52.9996635,8.0221774 C52.9852946,6.54761429 54.1702267,5.34776963 55.6468092,5.33604148 C57.1142267,5.32757546 58.3198189,6.51048808 58.3328674,7.9798473 L58.3328674,7.9798473 Z M42.3331004,29.10909 C48.4489063,29.6155755 46.258848,23.1196531 51.9175665,23.059692 L54.3681296,25.1039638 C54.9786927,32.4867988 45.9476247,34.1351094 42.3331004,29.10909 L42.3331004,29.10909 Z M61.0867315,19.6224104 C62.9891004,16.637323 68.8822267,6.62575022 68.8822267,6.62575022 C69.3509645,5.79569196 68.3092558,4.9285075 67.5814111,5.54109002 C67.5814111,5.54109002 58.8185373,13.1594978 56.2339936,15.5741774 C54.1909645,17.4836143 54.1825762,18.3560803 53.5209839,21.5037308 L55.7598966,23.3695949 C58.7286733,22.1508764 59.5828868,21.9842745 61.0867315,19.6224104 L61.0867315,19.6224104 Z M44.2575276,26.0311094 C41.4789645,23.6040026 39.697683,20.0571289 39.667081,16.1014784 C39.6085179,8.75522594 45.5420325,2.72858517 52.8941102,2.66870167 C58.0112364,2.64136187 61.5333335,5.20842983 61.5554694,7.26435216 C62.3640907,6.55538128 63.1205956,5.89394439 63.7729451,5.32369196 C62.426615,2.36011915 58.1974111,-0.0694730847 52.8719742,0.00151720657 C44.0394305,0.0737502163 36.930149,7.28780847 37.0005179,16.1229929 C37.0311199,20.00509 38.4438577,23.549323 40.7641684,26.3019444 C42.04145,26.9581774 43.5947703,26.7407017 44.2575276,26.0311094 L44.2575276,26.0311094 Z M61.3198189,23.4894395 C62.7312364,26.1170124 59.5177995,27.9816337 56.5933723,28.8122357 C56.1871587,30.028391 55.5230034,31.1065269 54.7612946,31.8930124 C61.7677412,31.1065269 66.8431587,26.1547599 63.1153917,21.3748764 C62.5033529,22.2876531 61.9201296,22.9712259 61.3198189,23.4894395 L61.3198189,23.4894395 Z" id="paintbrush-7-icon"></path>
                </g>
            </g>
        </g>
    </g>
</svg>