<?xml version="1.0" encoding="UTF-8" standalone="no"?>
<svg width="23px" height="40px" viewBox="0 0 23 40" version="1.1" xmlns="http://www.w3.org/2000/svg" xmlns:xlink="http://www.w3.org/1999/xlink" xmlns:sketch="http://www.bohemiancoding.com/sketch/ns">
    <!-- Generator: Sketch 3.1 (8751) - http://www.bohemiancoding.com/sketch -->
    <title>smartphone-4-icon</title>
    <desc>Created with Sketch.</desc>
    <defs></defs>
    <g id="Page-1" stroke="none" stroke-width="1" fill="none" fill-rule="evenodd" sketch:type="MSPage">
        <g id="Case-creator-pre-design-2" sketch:type="MSArtboardGroup" transform="translate(-42.000000, -316.000000)" fill="#FFFFFF">
            <g id="toolbar" sketch:type="MSLayerGroup" transform="translate(-3.000000, -9.000000)">
                <g id="smartphone-4-icon-+-PHONE" transform="translate(3.000000, 325.000000)" sketch:type="MSShapeGroup">
                    <path d="M61.5771071,0 L45.3883929,0 C43.5168705,0 42,1.43436893 42,3.2038835 L42,36.7961165 C42,38.5656311 43.5168705,40 45.3883929,40 L61.5771071,40 C63.4486295,40 64.9655,38.5656311 64.9655,36.7961165 L64.9655,3.2038835 C64.9655,1.43436893 63.4486295,0 61.5771071,0 L61.5771071,0 Z M51.685875,2.93417476 L55.4849821,2.93417476 C55.7117991,2.93417476 55.8956964,3.10805825 55.8956964,3.32252427 C55.8956964,3.53699029 55.7117991,3.71087379 55.4849821,3.71087379 L51.685875,3.71087379 C51.459058,3.71087379 51.2751607,3.53699029 51.2751607,3.32252427 C51.2751607,3.10805825 51.459058,2.93417476 51.685875,2.93417476 L51.685875,2.93417476 Z M53.5856339,38.1607767 C52.6781607,38.1607767 51.9427768,37.4653398 51.9427768,36.6073786 C51.9427768,35.7494175 52.6781607,35.0539806 53.5856339,35.0539806 C54.4926964,35.0539806 55.2284911,35.7494175 55.2284911,36.6073786 C55.2284911,37.4653398 54.4926964,38.1607767 53.5856339,38.1607767 L53.5856339,38.1607767 Z M62.3901161,33.3737864 L44.5755893,33.3737864 L44.5755893,6.62621359 L62.3901161,6.62621359 L62.3901161,33.3737864 L62.3901161,33.3737864 Z" id="smartphone-4-icon"></path>
                </g>
            </g>
        </g>
    </g>
</svg>