<?xml version="1.0" encoding="UTF-8" standalone="no"?>
<svg width="22px" height="24px" viewBox="0 0 22 24" version="1.1" xmlns="http://www.w3.org/2000/svg" xmlns:xlink="http://www.w3.org/1999/xlink">
    <!-- Generator: Sketch 3.6.1 (26313) - http://www.bohemiancoding.com/sketch -->
    <title>icon-process-goal</title>
    <desc>Created with Sketch.</desc>
    <defs></defs>
    <g id="Page-1" stroke="none" stroke-width="1" fill="none" fill-rule="evenodd">
        <g id="icon-process-goal" fill="#0365A4">
            <path d="M12.747,12.795 L22,17.375 L18.547,18.695 L21.692,22.734 L20.145,24 L16.941,19.896 L14.82,22.905 L12.747,12.795 L12.747,12.795 Z M12,10 C12,8.896 11.105,8 10,8 C8.895,8 8,8.896 8,10 C8,11.104 8.895,12 10,12 C11.105,12 12,11.104 12,10 L12,10 Z M10,4 C6.686,4 4,6.686 4,10 C4,13.314 6.686,16 10,16 C10.458,16 10.902,15.944 11.331,15.847 L10.928,13.881 C10.629,13.952 10.321,14 10,14 C7.794,14 6,12.206 6,10 C6,7.794 7.794,6 10,6 C12.206,6 14,7.794 14,10 C14,10.384 13.929,10.747 13.827,11.099 L15.651,12.001 C15.873,11.375 16,10.703 16,10 C16,6.686 13.314,4 10,4 L10,4 Z M11.733,17.806 C11.174,17.93 10.596,18 10,18 C5.589,18 2,14.411 2,10 C2,5.589 5.589,2 10,2 C14.411,2 18,5.589 18,10 C18,11.021 17.801,11.994 17.451,12.892 L19.254,13.784 C19.732,12.616 20,11.34 20,10 C20,4.477 15.523,-3.55271368e-15 10,-3.55271368e-15 C4.477,-3.55271368e-15 0,4.477 0,10 C0,15.523 4.477,20 10,20 C10.733,20 11.446,19.916 12.135,19.766 L11.733,17.806 L11.733,17.806 Z" id="Shape"></path>
        </g>
    </g>
</svg>